<svg xmlns="http://www.w3.org/2000/svg" width="38.4" height="38.4" viewBox="0 0 1016 1016" shape-rendering="geometricPrecision" text-rendering="geometricPrecision" image-rendering="optimizeQuality" fill-rule="evenodd" clip-rule="evenodd"><path d="M1015.76 160.11c1-3.8-1.34-7.47-5.19-8.26l-129.99-24.92c-3.85-.8-7.06 1.74-7.14 5.7l-16.26 562.38c-5.76-.66-12.63-1.3-20.53-1.87l17.33-557.51-10.67-29.99c-1.31-3.66-5.37-5.66-9.02-4.36l-27.84 9.91-.19 581.18c-4.59.03-9.33.13-14.23.3l.27-591.8-22.26-20.71c-2.83-2.64-8.13-3.84-11.86-2.51l-28.17 10.03 52.47 605.49c-4.58.31-9.32.67-14.11 1.16L715.34 81.38l-25.06-17.02c-3.23-2.19-8.39-1.95-11.5.37l-24.87 19.24 103.06 611.72c-4.59.5-9.29 1.24-14.07 2.01L640.61 90.5l-37.86-28.27c-3.11-2.37-8.07-2.1-11 .44l-37.2 32.71 172.49 605.36c-4.52.93-9.13 1.93-13.78 3.11L539.59 94.64l-27.55-11.35c-2.32-.97-5.32-.93-7.91-.07l-.56.2c-1.23.48-2.35 1.14-3.22 1.97l-38.15 34.85 225.35 591.08c-4.54 1.43-9.03 3.02-13.41 4.68L448.17 123.18l-35.76-5.82c-3.81-.71-8.77 1.44-10.97 4.65l-19.58 28.42 288.09 567.16c-4.45 1.68-8.89 3.46-13.2 5.27L369.9 158.06l-44.3-9.51c-3.83-.79-7.78 1.56-8.75 5.37l-5.91 21.85 341.04 549.15c-4.46 1.97-8.83 3.9-13.08 5.88l-341-549.16-31.36-4.39c-3.81-.5-6.97 2.21-6.96 6.15l-.06 34.55 374.13 515.46c-4.37 2.23-8.65 4.4-12.84 6.55L249.24 227.99l-48.08-4.62 1.48 47.79L614.56 743.4c-4.39 2.4-8.61 4.75-12.61 7.2L189.63 277.76l-31.21 5.4c-3.89.62-4.82 3.49-2.21 6.4l429.6 470.91c-17.41 11.06-30.7 21.04-38.72 27.47L128.01 319.73c-2.62-2.91-6.71-2.86-9.21.19l-43.42 52.82c-2.51 2.95-4.16 8.57-3.6 12.49l11.59 90.7-75.69 37.64c-3.52 1.7-6.39 6.3-6.46 10.25C.89 536.28.26 562.18.01 574.6c-.08 3.96 2.17 9.25 5.01 12l386.77 366.61c2.84 2.75 7.58 2.92 10.61.43l105.91-85.92 61.36-54.52c132.18-88.33 297.11-87.53 297.11-87.53l5.11-16.15.49.3s3.15-11.88 3.12-11.96l140.26-537.75zM296.08 672.6l-46.01 40.9-19.1-17.36 46.45-40.69 18.66 17.15zM45.25 556.82l27.53-16.83-8.47-8.49 45.64-30.12 18.93 17.41-45.02 32.33-5.98-6.01-27.19 16.69-5.44-4.98zm38.86 35.5l25.47-15.74-6.86-6.89 47.08-31.01 19.13 17.15-46.76 33.5-7.45-7.55-25.21 15.44-5.4-4.9zm42.7 38.97l28.65-17.58-6.38-6.35 44.39-29.18 18.92 17.41L168.62 627l-8.1-8.06-28.35 17.37-5.36-5.02zm50.36 46l62.53-56.5 5.29 4.84-62.55 56.45-5.27-4.79zm22.63 20.69l62.56-56.43 5.18 4.79-62.49 56.42-5.25-4.78zm42.48 38.88l63.39-55.43 5.26 4.79-63.35 55.51-5.3-4.87zm34.54 2.58l46.35-41.96 21.08 19.46-47.76 42-19.67-19.5zm43.84 69.02l-5.25-4.79 62.21-56.12 5.17 4.81-62.13 56.1zm42.15 38.43l20.29-17.68-9.08-8.11 41.05-39.04 24.36 22.39-41.22 38.27-9.77-8.78-20.35 17.81-5.28-4.86zm28.9 26.5l63.06-54.83 5.24 4.76-62.91 54.91-5.39-4.84zm66.61 14.29l-12.33-10.94 37.44-31.8 11.68 11.47-36.79 31.27z" fill="#2c2c2c" fill-rule="nonzero"/></svg>