<svg width="115" height="43" fill="none" xmlns="http://www.w3.org/2000/svg"><path d="M44.727 4.316a.288.288 0 00-.228-.358l-5.724-1.082c-.17-.034-.311.076-.315.248l-.715 24.39a22.021 22.021 0 00-.904-.081l.763-24.179-.47-1.3a.315.315 0 00-.398-.19l-1.225.43-.009 25.206c-.202 0-.41.005-.626.012l.012-25.666-.98-.898a.57.57 0 00-.523-.109l-1.24.435 2.31 26.26c-.202.014-.41.03-.621.05L31.499.902 30.395.163a.473.473 0 00-.506.016l-1.095.834 4.538 26.53c-.202.022-.41.054-.62.088L28.208 1.297 26.54.07a.407.407 0 00-.484.019l-1.639 1.418 7.596 26.255c-.2.04-.402.083-.607.134L23.76 1.477 22.547.983a.525.525 0 00-.349-.003l-.024.009a.432.432 0 00-.142.085l-1.68 1.511 9.923 25.635c-.2.062-.398.132-.59.203l-9.95-25.71-1.575-.252a.531.531 0 00-.484.201l-.861 1.233L29.5 28.493c-.196.073-.392.15-.581.23L16.288 4.226l-1.951-.412a.33.33 0 00-.385.232l-.26.948L28.709 28.81c-.197.086-.39.17-.576.255L13.117 5.25l-1.38-.19a.263.263 0 00-.307.266l-.003 1.498L27.901 29.18l-.565.283L10.974 7.26l-2.117-.2.066 2.072 18.138 20.48c-.193.105-.38.207-.555.313L8.35 9.418l-1.375.234c-.17.027-.212.152-.097.278l18.917 20.423c-.767.48-1.352.913-1.705 1.191L5.637 11.238a.26.26 0 00-.406.008l-1.912 2.291a.776.776 0 00-.159.542l.51 3.934-3.332 1.632a.549.549 0 00-.285.445C.04 20.63.011 21.753 0 22.292a.793.793 0 00.22.52l17.032 15.9c.125.12.334.127.467.019l4.663-3.727 2.702-2.364c5.82-3.83 13.083-3.796 13.083-3.796l.225-.7.022.012s.139-.515.137-.518l6.176-23.322zm-31.69 22.226l-2.026 1.774-.84-.753 2.045-1.765.821.744zM1.992 21.521l1.212-.73-.372-.368 2.009-1.306.834.755-1.983 1.402-.263-.261-1.197.724-.24-.216zm1.711 1.54l1.122-.683-.302-.3 2.073-1.344.842.744L5.38 22.93l-.328-.328-1.11.67-.238-.213zm1.88 1.69l1.262-.763-.28-.275 1.954-1.266.833.755-1.927 1.362-.357-.35-1.248.754-.237-.217zm2.218 1.995l2.754-2.451.232.21-2.754 2.448-.232-.207zm.997.897l2.754-2.448.228.208-2.75 2.447-.231-.207zm1.87 1.686l2.791-2.404.232.208-2.79 2.407-.233-.211zm1.521.112l2.041-1.82.928.844-2.103 1.822-.866-.846zm1.93 2.993l-.23-.207 2.739-2.434.227.208-2.735 2.433zm1.857 1.667l.893-.767-.4-.352 1.808-1.693 1.072.971-1.815 1.66-.43-.38-.896.772-.232-.211zm1.272 1.15l2.777-2.379.23.207-2.77 2.381-.237-.21zm2.933.619l-.543-.475 1.649-1.378.514.497-1.62 1.356zm43.442-17.381c-.499.79-1.063 1.445-1.693 1.963-.63.518-1.267.93-1.91 1.237a8.098 8.098 0 01-1.88.645 8.367 8.367 0 01-1.62.184 6.777 6.777 0 01-2.024-.307 10.112 10.112 0 01-1.849-.777A11.93 11.93 0 0151.06 20.4a15.072 15.072 0 01-1.236-1.053 8.211 8.211 0 01-.8-.87c-.193-.252-.29-.405-.29-.46 0-.068.024-.109.073-.123.048-.013.183-.054.405-.122.276-.082.49-.167.643-.256.153-.089.346-.222.582-.399a.97.97 0 01.187-.143.406.406 0 01.207-.061c.111 0 .246.017.405.05.16.035.294.066.405.093.402.054.89.102 1.464.143.575.04 1.201.075 1.88.102.678.027 1.38.048 2.107.062l2.14.04c.699.014 1.363.02 1.993.02h1.651c.581-1.035 1.118-1.98 1.61-2.832a64.09 64.09 0 011.432-2.373 34.77 34.77 0 011.402-2.045c.47-.634.983-1.25 1.537-1.85.138-.15.25-.246.332-.287.083-.041.222-.082.415-.123a6.584 6.584 0 001.06-.368l.207-.102a.187.187 0 01.083-.02c.056 0 .104.047.146.142.041.096.069.205.083.328a6.85 6.85 0 01.041.613c0 .177-.013.368-.041.573a6.087 6.087 0 01-.104.573c-.042.177-.076.327-.104.45a1.59 1.59 0 00-.041.225c0 .04-.073.31-.219.807a93.797 93.797 0 01-.55 1.81l-.706 2.26c-.249.798-.477 1.518-.685 2.159a29.736 29.736 0 001.184-.04 29.028 29.028 0 011.183-.042c.028 0 .07.007.125.02.055.014.083.055.083.123 0 .027-.055.068-.166.123a6.552 6.552 0 01-.312.143l-1.64.695h-.79a61.807 61.807 0 00-.519 1.77c-.124.456-.221.89-.29 1.298-.388.11-.717.215-.987.317a9.28 9.28 0 00-.924.42.59.59 0 01-.145.092.407.407 0 01-.146.05c-.069 0-.1-.033-.093-.101a.449.449 0 01.031-.144l1.121-3.66-2.865.06zm3.156-1.125a131.21 131.21 0 001.869-5.707c.139-.423.274-.856.405-1.299.132-.443.225-.869.28-1.278a13.701 13.701 0 00-.83 1.135c-.139.211-.274.423-.405.634a11.77 11.77 0 00-.343.583c-.194.327-.44.757-.737 1.289a1389.558 1389.558 0 01-1.88 3.344 79.1 79.1 0 01-.747 1.299h2.388zm-14.682 1.288c.623.614 1.24 1.118 1.848 1.514.61.395 1.188.705 1.734.93a8.093 8.093 0 001.495.47c.45.09.82.134 1.112.134.581 0 1.083-.11 1.505-.328.422-.218.79-.487 1.1-.807a5.01 5.01 0 00.78-1.033c.207-.369.387-.71.54-1.023l-10.114.143zm24.256-1.472a79.367 79.367 0 01-.81 1.523c-.236.43-.47.822-.706 1.176a10.263 10.263 0 01-1.37 1.677 3.028 3.028 0 01-.77.573 3.938 3.938 0 01-.747.327 1.508 1.508 0 01-.322.052 1.06 1.06 0 01-.332-.031.587.587 0 01-.28-.174.715.715 0 01-.166-.378 1.4 1.4 0 01-.01-.737c.061-.245.169-.48.321-.705a2.69 2.69 0 01.582-.614c.235-.184.49-.337.768-.46l.145.245a.7.7 0 00-.332.4 1.22 1.22 0 00.114 1.012c.09.15.19.245.301.286.333-.123.651-.338.956-.644.304-.307.595-.651.872-1.033.332-.477.623-.958.872-1.442.25-.484.443-.876.582-1.176-.042-.014-.104 0-.187.04-.084.041-.17.082-.26.123-.09.041-.18.079-.27.113-.09.034-.163.037-.218.01-.138-.055-.187-.136-.145-.245l.851-.287c0-.013.097-.058.29-.133.195-.075.416-.153.665-.235a77.61 77.61 0 011.08-.348 1.39 1.39 0 01.198-.04c.09-.014.186-.028.29-.041a8.91 8.91 0 00.28-.041 1.44 1.44 0 01.146-.02c.055 0 .083.033.083.102 0 .04-.017.108-.052.204-.035.095-.08.204-.135.327a16.983 16.983 0 01-.353.737c-.11.245-.239.538-.384.88a23.955 23.955 0 00-.727 1.952c-.09.28-.135.481-.135.604 0 .15.035.266.104.348.07.081.152.14.25.173.096.034.193.055.29.062a4.794 4.794 0 001.703-.194v.286a21.47 21.47 0 01-1.61.644 8.541 8.541 0 01-.986.286c-.332.075-.63.113-.893.113a.886.886 0 01-.644-.266.86.86 0 01-.27-.634c0-.218.031-.447.094-.685.062-.239.128-.46.197-.665l1.08-3.048zm9.407 4.397a74.2 74.2 0 01-2.118.603 7.93 7.93 0 01-2.056.297c-.761 0-1.322-.181-1.682-.542-.36-.362-.54-.781-.54-1.258 0-.518.149-1.043.447-1.575a5.692 5.692 0 011.173-1.452 6.4 6.4 0 011.65-1.074c.617-.28 1.25-.42 1.9-.42.458 0 .797.086 1.018.256a.78.78 0 01.333.644c0 .314-.125.672-.374 1.074-.25.402-.602.774-1.06 1.115a8.91 8.91 0 01-1.432.839 39.51 39.51 0 01-1.433.634c.208.204.45.358.727.46.277.102.54.18.789.235.25.055.474.085.675.092.2.007.336.01.405.01.11 0 .297-.006.56-.02a5.266 5.266 0 001.018-.184v.266zm-4.32-1.125a3.81 3.81 0 001.018-.604c.305-.252.561-.521.769-.807a4.06 4.06 0 00.488-.87c.117-.293.176-.562.176-.808 0-.232-.055-.405-.166-.521a.55.55 0 00-.415-.174c-.25 0-.495.095-.737.286a2.68 2.68 0 00-.634.736c-.18.3-.325.635-.436 1.003a3.84 3.84 0 00-.166 1.104c0 .15.01.273.031.368.02.096.045.191.073.287zm11.65 1.452c-.733.26-1.283.42-1.65.48a5.565 5.565 0 01-.862.093c-.36 0-.661-.065-.903-.195a1.704 1.704 0 01-.582-.49 2.087 2.087 0 01-.322-.645 2.355 2.355 0 01-.103-.675c0-.068.006-.228.02-.48.014-.253.076-.529.187-.829a3.43 3.43 0 00-.53.757c-.159.3-.29.593-.394.88a8.122 8.122 0 00-.239.756 3.447 3.447 0 00-.083.368c-.014.069-.03.11-.052.123a.84.84 0 01-.156.062c-.235.04-.467.085-.695.132-.229.048-.46.106-.696.174a.484.484 0 01-.166.041c-.07 0-.1-.02-.093-.061.007-.041.017-.068.03-.082l1.911-5.706c.014-.028.1-.058.26-.092l.426-.093c.36-.081.657-.156.893-.224.152-.041.249-.069.29-.082a.347.347 0 01.104-.02c.042 0 .063.02.063.06 0 .028-.028.13-.084.307l-1.1 2.7c.415-.613.824-1.114 1.225-1.503a7.41 7.41 0 011.111-.91c.34-.218.64-.368.903-.45.263-.082.464-.123.603-.123.276 0 .48.085.612.256a.9.9 0 01.198.562 2.14 2.14 0 01-.218.88c-.09.19-.229.398-.416.623a4.491 4.491 0 01-.737.686l-.083-.246a.544.544 0 00.104-.143c.027-.054.041-.157.041-.307 0-.272-.097-.535-.29-.787-.194-.252-.471-.378-.831-.378a.68.68 0 00-.623.347c-.139.232-.208.525-.208.88 0 .422.087.835.26 1.237.173.402.401.754.685 1.053.284.3.616.529.997.686.38.157.779.2 1.194.133v.245zm4.258-3.129a.933.933 0 00.488-.47c.09-.205.135-.424.135-.655 0-.287-.038-.495-.114-.624a1.533 1.533 0 00-.239-.317c-.401.259-.73.545-.986.859a4.593 4.593 0 00-.603.93c-.145.307-.245.6-.3.88a3.74 3.74 0 00-.084.706c0 .436.139.794.416 1.073.276.28.789.42 1.536.42.305 0 .668-.02 1.09-.062a9.94 9.94 0 001.112-.163v.266c-.333.095-.682.194-1.05.296a19.551 19.551 0 01-2.21.481c-.36.054-.707.082-1.04.082-.622 0-1.096-.123-1.422-.368-.325-.246-.488-.587-.488-1.023 0-.573.166-1.152.499-1.739a6.484 6.484 0 011.266-1.585 6.759 6.759 0 011.703-1.145c.623-.293 1.219-.44 1.786-.44.208 0 .433.048.675.143.242.096.364.307.364.634 0 .273-.07.512-.208.716a2.203 2.203 0 01-.55.552 4.42 4.42 0 01-.78.44c-.29.13-.587.249-.892.358l-.104-.245zm9.034 2.802c-.679.204-1.385.405-2.118.603a7.935 7.935 0 01-2.056.297c-.762 0-1.323-.181-1.683-.542-.36-.362-.54-.781-.54-1.258 0-.518.149-1.043.447-1.575a5.712 5.712 0 011.173-1.452 6.408 6.408 0 011.651-1.074c.616-.28 1.25-.42 1.901-.42.456 0 .796.086 1.017.256a.78.78 0 01.332.644c0 .314-.124.672-.373 1.074-.25.402-.603.774-1.06 1.115a8.877 8.877 0 01-1.432.839c-.499.231-.977.443-1.433.634.207.204.45.358.726.46.277.102.54.18.79.235.249.055.474.085.675.092.2.007.335.01.404.01.111 0 .298-.006.561-.02a5.279 5.279 0 001.018-.184v.266zm-4.32-1.125c.374-.15.713-.351 1.018-.604.304-.252.561-.521.768-.807.208-.287.371-.577.488-.87.118-.293.177-.562.177-.808 0-.232-.056-.405-.166-.521a.553.553 0 00-.416-.174c-.249 0-.495.095-.737.286a2.694 2.694 0 00-.633.736c-.18.3-.326.635-.436 1.003a3.81 3.81 0 00-.167 1.104c0 .15.011.273.032.368a4.3 4.3 0 00.072.287zm12.44 1.002a33.6 33.6 0 01-1.703.613c-.333.11-.644.205-.935.287-.291.082-.505.123-.644.123a.795.795 0 01-.488-.184.61.61 0 01-.238-.512c0-.231.058-.511.176-.838.118-.328.253-.689.405-1.084a32.7 32.7 0 01-.768.981 4.563 4.563 0 01-1.08.941 5.479 5.479 0 01-.893.481 2.412 2.412 0 01-.955.215.88.88 0 01-.572-.195c-.159-.129-.238-.31-.238-.541 0-.096.007-.185.02-.266.014-.082.042-.188.084-.318.041-.129.1-.3.176-.51.076-.212.183-.495.322-.85l1.142-2.884a.922.922 0 01.135-.255c.035-.034.121-.065.26-.092.055-.014.173-.041.353-.082l.54-.123a9.23 9.23 0 00.675-.184c.117-.04.162-.027.135.041 0 .014-.045.123-.135.327-.09.205-.198.457-.322.757-.125.3-.267.634-.426 1.002a20.43 20.43 0 00-.426 1.064c-.124.34-.232.651-.322.93-.09.28-.135.488-.135.624a.59.59 0 00.083.317c.056.089.153.133.291.133.139 0 .319-.071.54-.215.222-.143.46-.385.717-.726.256-.34.529-.78.82-1.319.291-.538.581-1.21.872-2.014.069-.219.139-.352.208-.4.069-.047.214-.098.436-.153a18.057 18.057 0 00.81-.215c.166-.047.315-.088.446-.122.132-.034.204-.051.218-.051.028 0 .042.02.042.061a.785.785 0 01-.031.123 1.12 1.12 0 01-.073.184l-1.246 2.986c-.111.286-.204.542-.28.767-.077.225-.115.392-.115.501 0 .123.035.222.104.297a.6.6 0 00.26.163c.104.034.214.055.332.062.118.007.218.01.301.01.208 0 .426-.01.654-.03.229-.021.385-.045.468-.072v.245zM115 12.21a7.44 7.44 0 01-.311.696 2.763 2.763 0 01-.499.685c-.208.211-.46.395-.758.552-.298.157-.661.256-1.09.296-.665.055-1.17-.064-1.516-.357-.346-.294-.54-.651-.582-1.074l1.309-.696c.014.11.041.253.083.43.041.177.114.348.218.511.104.164.242.3.415.41.173.108.384.15.634.122.29-.014.539-.085.747-.215.208-.13.381-.28.519-.45.139-.17.25-.35.333-.542.083-.19.145-.368.187-.532l.311.164zM58.006 37.598c-.401.177-.83.337-1.287.48-.457.143-.897.266-1.319.368-.422.103-.81.181-1.163.236a5.845 5.845 0 01-.84.081 3.44 3.44 0 01-1.642-.388 4.91 4.91 0 01-1.308-1.023A7.34 7.34 0 0149.42 35.9a15.912 15.912 0 01-.789-1.667 17.72 17.72 0 01-.581-1.667 43.374 43.374 0 01-.405-1.473l-1.433.86-.488 1.053c-.173.375-.388.767-.644 1.176-.256.409-.557.821-.903 1.237a8.785 8.785 0 01-1.226 1.197A10.167 10.167 0 0140.2 38.2a8.647 8.647 0 01-3.167.603 10.67 10.67 0 01-1.288-.092 3.476 3.476 0 01-.644-.143c-.18-.061-.27-.133-.27-.215 0-.027.014-.061.042-.102.028-.04.11-.102.25-.184.069-.04.138-.089.207-.143a4.57 4.57 0 00.25-.215c.096-.089.214-.194.352-.317.139-.123.312-.28.52-.47a.624.624 0 01.176-.133 4.56 4.56 0 01.342-.113 5.03 5.03 0 00.665-.215 7.88 7.88 0 00.758-.358c.284-.15.62-.334 1.007-.552l1.412-.797 3.115-1.76.956-3.047c.055-.164.117-.372.187-.624.069-.252.145-.525.228-.818.083-.293.173-.593.27-.9.097-.307.2-.603.312-.89l-.956.266c.083-.095.218-.262.405-.501.187-.239.384-.487.592-.747.208-.259.405-.497.592-.715.187-.219.315-.348.384-.389.056-.04.197-.106.426-.194a26.772 26.772 0 011.401-.502l.312-.102c.11 0 .166.041.166.123 0 .04-.038.133-.114.276a3.844 3.844 0 00-.156.317c-.138.273-.26.522-.363.747a15.99 15.99 0 00-.29.664c-.09.219-.178.447-.26.686-.084.238-.18.508-.291.808l-1.309 4.009 1.143-.675-.084-.512 1.828-.675c1.426-1.172 2.669-2.12 3.728-2.843 1.059-.723 1.945-1.282 2.658-1.677.713-.395 1.263-.661 1.65-.798.388-.136.63-.204.728-.204.027 0 .065.006.114.02.048.014.073.055.073.123 0 .095-.06.249-.177.46-.118.211-.329.464-.633.757-.305.293-.717.62-1.236.982-.52.361-1.173.733-1.962 1.114-.139.069-.378.181-.717.338-.34.157-.696.324-1.07.501a62.799 62.799 0 01-1.744.798 30.273 30.273 0 01-1.121.593l.342 1.278c.104.389.215.76.333 1.115.117.355.245.699.384 1.033.138.334.304.678.498 1.033.236.45.513.876.83 1.278.32.402.686.754 1.102 1.053.415.3.875.539 1.38.716a5.09 5.09 0 001.693.266c.402 0 .751-.034 1.049-.102.297-.068.536-.13.716-.184l.083.348zm-14.163-4.193l-2.7 1.677c-.595.354-1.159.712-1.692 1.074-.533.36-.993.678-1.38.95.138.028.331.059.58.093.25.034.492.05.727.05h.312c.166 0 .367-.01.602-.03.236-.02.495-.054.779-.102a5.64 5.64 0 00.8-.194c.18-.055.339-.123.477-.205.139-.082.273-.218.405-.409.132-.19.263-.45.395-.777.131-.327.28-.764.446-1.31l.25-.817zm20.622 3.641c.055-.028.156-.065.3-.113l.468-.153c.166-.055.319-.106.457-.154a2.66 2.66 0 00.29-.112l.063.286a5.497 5.497 0 01-.478.205 65.465 65.465 0 01-1.225.45c-.152.477-.294.886-.426 1.227a4.95 4.95 0 01-.488.951c-.193.293-.44.59-.737.89-.297.3-.696.634-1.194 1.002a12.178 12.178 0 01-1.484.93 7.32 7.32 0 01-.894.4c-.297.109-.557.156-.778.143a.543.543 0 01-.322-.113c-.104-.075-.15-.194-.135-.358.014-.204.12-.477.322-.818.2-.34.491-.712.872-1.115.38-.402.844-.811 1.391-1.227a13.657 13.657 0 011.859-1.176l.685-1.902c-.138.15-.339.361-.602.634a9.677 9.677 0 01-.904.818 7.021 7.021 0 01-1.08.716c-.38.204-.757.307-1.131.307a.741.741 0 01-.509-.195.664.664 0 01-.218-.521c0-.11.014-.225.042-.348.027-.123.096-.3.207-.532l1.6-4.09a.358.358 0 01.062-.113c.027-.034.103-.065.228-.092l1.454-.389a.566.566 0 01.124-.04h.042c.041 0 .062.02.062.061 0 .027-.045.15-.135.368-.09.218-.197.488-.322.808-.124.32-.266.672-.425 1.053-.16.382-.302.747-.426 1.095-.125.347-.232.661-.322.94-.09.28-.135.474-.135.584 0 .068.017.15.052.245.034.095.128.143.28.143.097 0 .246-.068.447-.205.2-.136.429-.35.685-.644.256-.293.526-.671.81-1.135.284-.464.557-1.03.82-1.697.014-.041.045-.12.094-.236.048-.116.097-.238.145-.368.048-.13.093-.245.135-.348.041-.102.07-.153.083-.153.014-.014.114-.044.301-.092s.391-.102.613-.164c.221-.061.422-.116.602-.163.18-.048.277-.072.29-.072.028 0 .042.02.042.061a1.11 1.11 0 01-.083.245l-1.474 4.276zm-2.326 1.636a7.248 7.248 0 00-1.308.828 8.09 8.09 0 00-.883.819 4.83 4.83 0 00-.509.644c-.11.177-.166.286-.166.327-.014.068.055.11.208.123.152.013.27.027.353.04a6.934 6.934 0 00.737-.05c.16-.02.305-.048.436-.082.132-.034.218-.086.26-.154.083-.109.207-.388.373-.838.167-.45.333-1.002.499-1.657zm7.061-.328a1.44 1.44 0 00.727-.347c.221-.191.38-.416.477-.675a1.28 1.28 0 00.042-.788c-.07-.266-.256-.494-.561-.685a6.636 6.636 0 00-.509-.286 4.375 4.375 0 00-.508-.225c.276-.068.553-.17.83-.307.277-.136.53-.283.758-.44.229-.157.419-.32.571-.49.153-.171.236-.338.25-.502.041-.259-.011-.477-.156-.654-.146-.178-.35-.266-.613-.266a1.23 1.23 0 00-.685.266c-.18.15-.322.317-.426.5-.104.185-.17.366-.197.543-.028.177-.021.307.02.389l.063.102c.028.068.007.102-.063.102-.027.027-.069.024-.124-.01a2.896 2.896 0 01-.312-.256c-.387-.259-.66-.443-.82-.552-.16-.11-.26-.198-.301-.266-.055-.218.024-.416.239-.593.214-.178.512-.32.893-.43.38-.109.803-.17 1.267-.184a6.12 6.12 0 011.401.123c.263.054.51.14.738.255.228.117.408.256.54.42.131.163.207.34.228.532.02.19-.052.388-.218.593a1.221 1.221 0 01-.405.348 3.45 3.45 0 01-.602.276 4.17 4.17 0 01-.675.173 6.407 6.407 0 01-.623.082c.249.041.495.1.737.174.242.075.457.17.644.286.187.117.335.246.446.39a.67.67 0 01.146.48 2.03 2.03 0 01-.27.808 2.876 2.876 0 01-.634.746 3.43 3.43 0 01-.965.573 3.61 3.61 0 01-1.246.245c-.25.041-.53.055-.841.041a6.153 6.153 0 01-.893-.102 3.906 3.906 0 01-.706-.194c-.187-.075-.28-.16-.28-.256 0-.027-.025-.106-.074-.235-.048-.13-.003-.276.135-.44a8.09 8.09 0 01.55-.798 5.49 5.49 0 01.333-.378c.076-.075.135-.116.176-.123a.77.77 0 01.125-.01c.042 0 .08-.007.114-.02.035-.014.038-.007.01.02a.664.664 0 00-.04.164c0 .027-.022.068-.063.122-.028.219-.007.433.062.645.07.211.166.402.29.572.126.17.274.31.447.42.174.109.357.15.55.122zm12.626-.694c-.18.081-.412.18-.696.296a15.23 15.23 0 01-.913.337c-.326.11-.654.205-.987.287a3.78 3.78 0 01-.893.123.885.885 0 01-.644-.266.86.86 0 01-.27-.634c0-.218.032-.447.094-.686.062-.238.128-.46.197-.664l.374-.962h-1.724l-.747 2.27c-.07.192-.121.314-.156.369-.035.054-.114.102-.239.143a20.909 20.909 0 01-.986.297 31.21 31.21 0 01-.457.122 1.518 1.518 0 01-.239.051c-.055 0-.083-.027-.083-.081 0-.028.014-.089.042-.184a.775.775 0 01.083-.205l1.848-5.338c.014-.028.076-.052.187-.072.11-.02.221-.044.332-.072.166-.04.388-.091.665-.153a7.7 7.7 0 00.726-.194.24.24 0 00.073-.02.24.24 0 01.073-.021c.041 0 .062.02.062.061a27.2 27.2 0 00-.54 1.258c-.166.416-.325.835-.477 1.258h1.765l.747-1.923c0-.013.052-.037.156-.071a3.26 3.26 0 01.353-.092c.132-.027.26-.055.384-.082.125-.027.208-.048.25-.061.041-.014.107-.038.197-.072.09-.034.183-.065.28-.092l.29-.102a.882.882 0 01.146-.041c.056 0 .083.034.083.102 0 .068-.062.242-.187.522-.124.28-.242.528-.353.746-.11.246-.235.525-.373.839a20.32 20.32 0 00-.385.93c-.117.307-.214.587-.29.839-.076.252-.115.44-.115.563 0 .15.035.265.104.347a.57.57 0 00.25.174c.096.034.193.055.29.061a5.055 5.055 0 001.703-.194v.286zm6.417.204c-.678.204-1.384.406-2.118.603a7.928 7.928 0 01-2.056.297c-.762 0-1.322-.18-1.682-.542-.36-.362-.54-.78-.54-1.258 0-.518.149-1.043.446-1.575a5.696 5.696 0 011.174-1.452 6.401 6.401 0 011.65-1.074c.617-.28 1.25-.42 1.9-.42.458 0 .797.086 1.018.256.222.17.333.386.333.645 0 .313-.125.671-.374 1.073-.25.403-.602.774-1.06 1.115a8.907 8.907 0 01-1.432.839c-.498.231-.976.443-1.433.634.207.204.45.358.727.46.277.102.54.18.789.235.25.055.474.085.675.092.2.007.336.01.405.01.11 0 .297-.006.56-.02a5.265 5.265 0 001.018-.184v.266zm-4.32-1.125a3.82 3.82 0 001.018-.603c.305-.253.56-.522.768-.808.208-.287.37-.577.489-.87.117-.293.176-.562.176-.808 0-.231-.055-.405-.166-.521a.55.55 0 00-.415-.174c-.25 0-.495.095-.738.286-.242.191-.453.437-.633.737s-.325.634-.436 1.002a3.805 3.805 0 00-.166 1.104c0 .15.01.273.03.368.022.096.046.191.074.287zm12.44 1.002c-.152.068-.36.15-.623.245a1.13 1.13 0 00-.187.246 1.885 1.885 0 00-.27.859c-.014.286-.041.57-.083.849-.041.28-.135.545-.28.797-.146.253-.433.488-.862.706a4.644 4.644 0 01-.603.245 7.87 7.87 0 01-.789.205l-.062.02c-.11-.027-.145-.068-.104-.122.042-.055.056-.069.042-.041.29-.068.498-.136.623-.205.124-.068.242-.15.353-.245.166-.177.245-.365.239-.563-.007-.197 0-.422.02-.675.021-.252.111-.528.27-.828.16-.3.502-.64 1.028-1.023a30.81 30.81 0 01-1.183.389c-.18.054-.34.096-.478.123-.138.027-.25.04-.332.04a.793.793 0 01-.488-.183.61.61 0 01-.24-.512c0-.232.06-.511.177-.838.118-.328.253-.689.405-1.084a32.7 32.7 0 01-.768.981 4.57 4.57 0 01-1.08.941 5.29 5.29 0 01-.893.48c-.332.144-.65.216-.955.216a.877.877 0 01-.571-.195c-.16-.13-.239-.31-.239-.542a1.6 1.6 0 01.104-.583c.041-.13.1-.3.176-.511.077-.211.184-.494.322-.849l1.142-2.884a.89.89 0 01.135-.255c.035-.035.121-.065.26-.093l.353-.081.54-.123a9.23 9.23 0 00.675-.184c.118-.041.163-.027.135.04 0 .015-.045.123-.135.328-.09.205-.197.457-.322.757s-.266.634-.426 1.002c-.159.368-.3.723-.425 1.064-.125.34-.232.65-.322.93s-.135.488-.135.624a.58.58 0 00.083.317c.055.089.152.133.29.133.139 0 .319-.072.54-.215.222-.143.46-.385.717-.726.256-.34.53-.78.82-1.319.29-.539.582-1.21.872-2.015.07-.218.139-.35.208-.398.07-.048.215-.1.436-.154.055-.014.163-.04.322-.082.16-.04.322-.085.488-.133.166-.047.315-.088.447-.122a2.16 2.16 0 01.218-.051c.027 0 .041.02.041.06 0 .015-.01.055-.031.123-.02.069-.045.13-.073.185l-1.246 2.986c-.11.286-.204.542-.28.767-.076.225-.114.392-.114.501a.42.42 0 00.103.296c.07.075.156.13.26.164.104.034.215.055.332.061.118.007.219.01.302.01.207 0 .425-.01.654-.03a2.36 2.36 0 00.467-.072v.246zm6.168-4.745c.277 0 .453.003.529.01.076.007.114.045.114.113 0 .082-.048.19-.145.327a2.43 2.43 0 01-.249.307 3.284 3.284 0 01-.291 1.84 5.428 5.428 0 01-1.132 1.606 5.958 5.958 0 01-1.609 1.135c-.595.287-1.156.43-1.682.43-.47 0-.855-.133-1.153-.399-.297-.266-.446-.637-.446-1.115 0-.436.086-.838.26-1.206a4.12 4.12 0 01.695-1.033c.29-.32.623-.61.997-.87.374-.259.761-.49 1.163-.695a1.282 1.282 0 01-.229-.123c-.083-.054-.124-.116-.124-.184 0-.082.052-.14.156-.174a7.28 7.28 0 01.654-.153l.29-.072a3.87 3.87 0 00.353-.112c.25-.11.423-.174.52-.194a1.43 1.43 0 01.29-.031c.291 0 .52.075.686.225.166.15.283.273.353.368zm-2.056.736a1.717 1.717 0 01-.602-.184 4.006 4.006 0 00-.489.481 4.021 4.021 0 00-.477.685 5.15 5.15 0 00-.374.839c-.104.3-.156.613-.156.94 0 .164.018.335.052.512.035.177.094.337.177.48.083.144.197.26.342.348.146.089.336.133.572.133.512 0 .892-.242 1.142-.726.249-.484.373-1.087.373-1.81 0-.068-.003-.174-.01-.317a2.991 2.991 0 00-.062-.46 2.531 2.531 0 00-.166-.501 1.103 1.103 0 00-.322-.42zm10.03-7.466c0 1.76-.266 3.256-.799 4.49-.533 1.234-1.451 2.178-2.752 2.833l.208-.041c.069-.014.145-.034.228-.062.263-.068.44-.115.53-.143.09-.027.19-.04.301-.04.041 0 .107.003.197.01a.93.93 0 01.312.092 1.935 1.935 0 01.758.654c.069.014.18.038.332.072.152.034.228.065.228.092 0 .04-.072.109-.218.204a8.004 8.004 0 01-.322.205c0 .136-.006.297-.02.48a1.907 1.907 0 01-.177.624 3.934 3.934 0 01-.478.767c-.214.28-.529.577-.944.89-.305.26-.734.525-1.288.798-.318.163-.654.3-1.007.409a3.677 3.677 0 01-1.09.164c-.886 0-1.33-.41-1.33-1.228 0-.232.028-.443.084-.634.055-.19.131-.422.228-.695.152-.56.315-1.08.488-1.565.173-.484.343-.944.509-1.38.484-1.282.979-2.342 1.485-3.181.505-.839.958-1.517 1.36-2.035.471-.6.921-1.07 1.35-1.412.221-.04.419-.095.592-.163s.328-.14.467-.215a10.6 10.6 0 01.374-.194.672.672 0 01.29-.082c.056 0 .087.014.094.04.007.028.01.11.01.246zm-3.862 7.732c-.042-.027-.149-.014-.322.04a1.451 1.451 0 01-.405.083l-.54 1.595a65.09 65.09 0 00-.208.624c-.069.211-.104.42-.104.624 0 .354.118.6.353.736.236.136.478.204.727.204.235 0 .416-.027.54-.081a.842.842 0 00.415-.317c.097-.144.187-.317.27-.522.111-.245.205-.528.281-.849a3.95 3.95 0 00.114-.91c0-.314-.08-.545-.239-.695-.159-.15-.453-.328-.882-.532zm2.139-7.057c-.084.055-.205.253-.364.594-.159.34-.336.75-.529 1.227a93.78 93.78 0 00-.603 1.523 335 335 0 00-.571 1.494c-.173.456-.311.838-.415 1.145-.104.307-.149.467-.135.48l-.125.41c.236-.082.488-.276.758-.583.27-.307.53-.675.779-1.105.249-.43.478-.896.685-1.4.208-.505.374-1 .499-1.484.124-.484.194-.927.207-1.33.014-.401-.048-.725-.186-.97zm-2.742 6.914l-.02-.02v.02h.02z" fill="#F2E9EA"/></svg>