<svg width="28" height="40" fill="none" xmlns="http://www.w3.org/2000/svg"><path d="M.633 34.755A.644.644 0 010 34.099c0-3.254 2.557-5.902 5.7-5.902.35 0 .634.293.634.656a.644.644 0 01-.634.656c-2.444 0-4.433 2.06-4.433 4.59a.644.644 0 01-.634.656zm26.602 0a.644.644 0 01-.633-.655c0-2.53-1.99-4.59-4.434-4.59a.644.644 0 01-.633-.656c0-.363.283-.656.633-.656 3.143 0 5.7 2.647 5.7 5.902a.644.644 0 01-.633.655z" fill="#0D0404"/><path d="M9.5 29.51l-3.8-.001a.645.645 0 01-.633-.656c0-.363.284-.656.633-.656l3.8.001c.35 0 .634.294.634.656a.645.645 0 01-.633.655zm12.668 0l-3.8-.002a.645.645 0 01-.633-.656c0-.362.283-.655.633-.655h3.8c.35 0 .634.295.634.657a.645.645 0 01-.634.655zM.635 40A.645.645 0 010 39.342V34.1c0-.362.283-.656.633-.656.35 0 .634.293.634.656l.001 5.245A.645.645 0 01.635 40zm26.6 0a.644.644 0 01-.633-.656V34.1c0-.363.283-.656.633-.656.35 0 .634.293.634.656v5.244a.644.644 0 01-.634.655z" fill="#0D0404"/><path d="M9.5 29.51a.644.644 0 01-.633-.656v-3.758c0-.363.283-.656.634-.656.35 0 .633.293.633.656v3.758a.644.644 0 01-.633.655zm8.868-.002a.644.644 0 01-.633-.656v-3.756c0-.363.283-.656.633-.656.35 0 .633.293.633.656v3.756a.644.644 0 01-.633.656z" fill="#0D0404"/><path d="M13.934 26.886C8.347 26.886 3.8 22.179 3.8 16.394c0-.362.283-.656.634-.656.35 0 .633.294.633.656 0 5.062 3.978 9.18 8.867 9.18 4.89 0 8.867-4.118 8.867-9.18 0-.362.284-.656.634-.656.35 0 .633.294.633.656 0 5.785-4.546 10.492-10.134 10.492z" fill="#0D0404"/><path d="M4.434 17.05a.645.645 0 01-.634-.656V9.18c0-.362.283-.655.634-.655.35 0 .633.293.633.655v7.214a.645.645 0 01-.633.656zm19.001 0a.645.645 0 01-.633-.656V8.526c0-.362.283-.656.633-.656.35 0 .633.294.633.656v7.868a.645.645 0 01-.633.656z" fill="#0D0404"/><path d="M23.435 9.182a.645.645 0 01-.634-.656c0-2.17-1.704-3.934-3.8-3.934a.645.645 0 01-.633-.656c0-.362.283-.656.633-.656 2.794 0 5.067 2.353 5.067 5.246a.645.645 0 01-.633.656z" fill="#0D0404"/><path d="M19.001 4.591a.645.645 0 01-.633-.655V.656C18.368.294 18.65 0 19 0c.35 0 .634.294.634.656v3.28A.645.645 0 0119 4.59z" fill="#0D0404"/><path d="M19.001 1.311h-6.334a.645.645 0 01-.633-.655c0-.362.283-.656.633-.656h6.334c.35 0 .633.294.633.656a.645.645 0 01-.633.655z" fill="#0D0404"/><path d="M4.434 9.836A.645.645 0 013.8 9.18C3.8 4.118 7.778 0 12.667 0c.35 0 .634.294.634.656a.645.645 0 01-.633.655c-4.192 0-7.601 3.53-7.601 7.87a.645.645 0 01-.633.655zm19.001 3.279a.62.62 0 01-.448-.192L20.454 10.3a.671.671 0 010-.928.617.617 0 01.895 0l2.534 2.623a.671.671 0 010 .928.62.62 0 01-.448.192z" fill="#0D0404"/><path d="M13.934 12.46c-3.93 0-7.158-1.977-7.293-2.062a.67.67 0 01-.217-.899.62.62 0 01.868-.226c.03.018 3.072 1.874 6.642 1.874 3.569 0 6.61-1.856 6.641-1.874a.62.62 0 01.869.226.67.67 0 01-.218.9c-.134.084-3.361 2.06-7.292 2.06z" fill="#0D0404"/><path d="M4.434 13.115a.62.62 0 01-.448-.192.671.671 0 010-.927l2.533-2.623a.618.618 0 01.896 0 .672.672 0 010 .927L4.88 12.923a.62.62 0 01-.447.192zM11.4 30.82a.62.62 0 01-.35-.11L9.148 29.4a.67.67 0 01-.175-.91.62.62 0 01.878-.182l1.9 1.31c.29.2.37.608.176.91a.627.627 0 01-.528.292z" fill="#0D0404"/><path d="M11.4 30.82a.638.638 0 01-.614-.497.656.656 0 01.462-.795l2.533-.655a.63.63 0 01.768.477.656.656 0 01-.461.795l-2.534.655a.624.624 0 01-.154.02zm5.068 0a.627.627 0 01-.527-.292.67.67 0 01.175-.91l1.9-1.31a.62.62 0 01.879.182.67.67 0 01-.176.91l-1.9 1.31a.62.62 0 01-.35.11z" fill="#0D0404"/><path d="M16.468 30.82a.624.624 0 01-.154-.02l-2.533-.655a.657.657 0 01-.461-.795.63.63 0 01.768-.477l2.533.655c.34.088.546.443.461.795a.639.639 0 01-.614.497zm-.634-7.213a.62.62 0 01-.447-.192l-.448-.464h-2.01l-.447.464a.617.617 0 01-.896 0 .671.671 0 010-.927l.634-.656a.621.621 0 01.447-.192h2.534a.62.62 0 01.448.192l.633.655a.671.671 0 010 .928.62.62 0 01-.448.192z" fill="#0D0404"/><path d="M12.034 23.607c-3.492 0-6.334-2.942-6.334-6.557 0-.362.284-.656.634-.656.35 0 .633.294.633.656 0 2.892 2.273 5.245 5.067 5.245.35 0 .633.294.633.656a.644.644 0 01-.633.656z" fill="#0D0404"/><path d="M6.334 17.705a.645.645 0 01-.634-.656c0-.723-.568-1.311-1.266-1.311a.645.645 0 01-.634-.656c0-.362.283-.656.634-.656 1.397 0 2.533 1.177 2.533 2.623a.645.645 0 01-.633.656zm9.5 5.902a.644.644 0 01-.633-.656c0-.362.283-.655.633-.655 2.794 0 5.067-2.354 5.067-5.246 0-.362.284-.656.634-.656.35 0 .633.294.633.656 0 3.615-2.841 6.557-6.334 6.557z" fill="#0D0404"/><path d="M21.535 17.705a.645.645 0 01-.634-.656c0-1.446 1.137-2.623 2.534-2.623.35 0 .633.294.633.656a.645.645 0 01-.633.656c-.699 0-1.267.588-1.267 1.311a.645.645 0 01-.633.656zm-2.533 17.05a.644.644 0 01-.633-.656v-5.247c0-.362.283-.655.633-.655.35 0 .634.293.634.655V34.1a.644.644 0 01-.634.656zm2.534 0a.644.644 0 01-.633-.656v-5.247c0-.362.283-.655.633-.655.35 0 .633.293.633.655V34.1a.644.644 0 01-.633.656zm-15.201 0a.644.644 0 01-.633-.656v-5.247c0-.362.283-.655.633-.655.35 0 .633.293.633.655V34.1a.644.644 0 01-.633.656zm2.534 0a.644.644 0 01-.634-.656v-5.247c0-.362.283-.655.634-.655.35 0 .633.293.633.655V34.1a.644.644 0 01-.633.656z" fill="#0D0404"/><path d="M23.436 40a.644.644 0 01-.633-.656v-4.589H5.067v4.59a.644.644 0 01-.633.655.644.644 0 01-.634-.656V34.1c0-.363.283-.656.634-.656h19.002c.35 0 .634.293.634.656v5.244a.644.644 0 01-.634.656z" fill="#0D0404"/></svg>