<svg width="40" height="40" fill="none" xmlns="http://www.w3.org/2000/svg"><g clip-path="url(#clip0)" fill="#0D0404"><path d="M27.189 12.121a.782.782 0 10-.002 1.563.782.782 0 00.002-1.563zM12.966 26.316a.782.782 0 10-.002 1.563.782.782 0 00.002-1.563z"/><path d="M39.144 4.806a.783.783 0 00-.733.21l-3.245 3.265H33.61l-1.713-1.77V4.935l3.199-3.24a.78.78 0 00-.308-1.289 7.821 7.821 0 00-2.5-.407 7.746 7.746 0 00-6.354 3.255c-1.394 1.937-1.824 4.31-1.208 6.582l-5.766 5.755-9.606-9.61V4.096a.78.78 0 00-.38-.67L3.439.111a.783.783 0 00-.956.118L.269 2.439a.78.78 0 00-.118.954l3.321 5.524a.783.783 0 00.67.379h1.89l9.607 9.61-5.744 5.733c-2.276-.614-4.655-.185-6.596 1.207a7.719 7.719 0 00-3.26 6.34c0 .854.137 1.694.408 2.495a.781.781 0 001.298.301l3.245-3.264h1.564l1.782 1.779v1.561l-3.27 3.239a.78.78 0 00.301 1.295 7.82 7.82 0 002.5.407 7.744 7.744 0 006.353-3.253c1.395-1.938 1.825-4.312 1.21-6.584l4.613-4.604 1.057 1.146-.485.483a.78.78 0 000 1.106.785.785 0 001.107 0l.439-.439 9.915 10.75a4.702 4.702 0 006.665.023 4.688 4.688 0 00-.024-6.653L27.93 22.097l.434-.434a.78.78 0 000-1.104.784.784 0 00-1.107 0l-.482.48-1.15-1.053 4.636-4.626a7.857 7.857 0 002.028.265c4.316 0 7.827-3.505 7.827-7.812a7.78 7.78 0 00-.408-2.495.781.781 0 00-.564-.512zM6.91 7.964a.776.776 0 00-.554-.222h-1.77l-2.779-4.63 1.35-1.347 4.63 2.774v1.767a.78.78 0 00.23.551l9.835 9.84-1.107 1.104L6.91 7.964zm19.91 15.239l10.824 9.91a3.126 3.126 0 01-.011 4.409 3.136 3.136 0 01-4.418.01L23.27 26.748l3.553-3.545zm-1.154-1.058l-3.46 3.453-1.056-1.146 3.366-3.36 1.15 1.053zm6.622-8.083c-.685 0-1.358-.11-2-.325a.785.785 0 00-.804.188L13.99 29.388a.78.78 0 00-.188.802 6.176 6.176 0 01-.855 5.644 6.194 6.194 0 01-5.081 2.603c-.23 0-.457-.013-.683-.037l2.486-2.462a.78.78 0 00.232-.555v-2.21a.78.78 0 00-.23-.552l-2.24-2.237a.784.784 0 00-.554-.229H4.664a.785.785 0 00-.556.231L1.64 32.868a6.31 6.31 0 01-.037-.681c0-2.036.95-3.884 2.608-5.072a6.208 6.208 0 015.655-.853.783.783 0 00.804-.188l15.493-15.463a.78.78 0 00.189-.802 6.173 6.173 0 01.852-5.642 6.195 6.195 0 015.083-2.604c.237 0 .471.013.703.038l-2.434 2.466a.78.78 0 00-.225.548v2.21a.78.78 0 00.22.543l2.162 2.237c.147.152.35.238.563.238h2.215a.783.783 0 00.555-.23l2.467-2.482c.024.226.037.453.037.682 0 3.446-2.81 6.25-6.262 6.25z"/><path d="M24.422 14.56l-9.796 9.775a.78.78 0 000 1.105.784.784 0 001.107 0l9.796-9.776a.78.78 0 000-1.105.784.784 0 00-1.107 0zm9.891 20.753a.784.784 0 001.108-.002.78.78 0 00-.002-1.105l-7.056-7.02a.784.784 0 00-1.107.003.78.78 0 00.002 1.104l7.055 7.02z"/></g><defs><clipPath id="clip0"><path fill="#fff" d="M0 0h40v40H0z"/></clipPath></defs></svg>