<svg width="40" height="40" fill="none" xmlns="http://www.w3.org/2000/svg"><g clip-path="url(#clip0)" fill="#0D0404"><path d="M14.154 25.845c2.938 2.938 7.718 2.938 10.656 0l12.04-12.038a1.161 1.161 0 011.64 0 1.162 1.162 0 010 1.64l-2.345 2.345a.586.586 0 10.829.829l2.345-2.345c.91-.91.91-2.389 0-3.298a2.325 2.325 0 00-1.649-.682c-.597 0-1.194.227-1.65.682L23.983 25.016a6.32 6.32 0 01-4.5 1.86 6.32 6.32 0 01-4.5-1.86 6.37 6.37 0 010-9l1.306-1.305a.586.586 0 00-.828-.829l-1.306 1.306c-2.938 2.938-2.938 7.719 0 10.657z"/><path d="M1.216 38.782c1.404 1.404 3.688 1.613 5.317.475a4.2 4.2 0 001.708-4.201l5.268-5.27a11.06 11.06 0 006.847 1.718 11.022 11.022 0 006.924-3.19l8.036-8.036a.586.586 0 10-.829-.828l-8.036 8.035a9.874 9.874 0 01-12.674 1.068.586.586 0 00-.754.063l-5.22 5.22-.024-.04a4.185 4.185 0 00-1.616-1.6l5.22-5.22a.586.586 0 00.062-.754 9.875 9.875 0 011.068-12.675L24.551 1.51a1.162 1.162 0 011.641 0 1.162 1.162 0 010 1.64l-9.075 9.076a.586.586 0 10.829.828L27.02 3.98c.909-.91.909-2.39 0-3.298-.882-.882-2.393-.906-3.298 0L11.684 12.719a11.022 11.022 0 00-3.19 6.923 11.059 11.059 0 001.717 6.847l-5.266 5.267a4.196 4.196 0 00-.787-.075A4.133 4.133 0 001.216 32.9a4.164 4.164 0 000 5.882zm.829-5.054a2.968 2.968 0 012.113-.875c.654 0 1.3.22 1.819.618 1.41 1.082 1.549 3.227.293 4.482-1.151 1.152-3.075 1.15-4.225 0a2.991 2.991 0 010-4.225z"/></g><defs><clipPath id="clip0"><path fill="#fff" transform="rotate(-180 20 20)" d="M0 0h40v40H0z"/></clipPath></defs></svg>