<svg width="40" height="40" viewBox="0 0 40 40" fill="none" xmlns="http://www.w3.org/2000/svg">
<g clip-path="url(#clip0)">
<path d="M14.1537 25.8447C17.0917 28.7828 21.8723 28.7828 24.8104 25.8447L36.8487 13.8065C37.301 13.3542 38.0369 13.3541 38.4894 13.8065C38.9417 14.2587 38.9417 14.9947 38.4894 15.4472L36.1444 17.7922C35.9155 18.021 35.9155 18.392 36.1444 18.6208C36.3732 18.8497 36.7443 18.8497 36.973 18.6208L39.318 16.2758C40.2273 15.3665 40.2273 13.887 39.318 12.9778C38.8635 12.5232 38.2662 12.2958 37.669 12.2958C37.0717 12.2958 36.4746 12.5231 36.0199 12.9778L23.9816 25.0161C22.7819 26.2158 21.1838 26.8766 19.482 26.8766C17.7802 26.8766 16.1822 26.2158 14.9824 25.0161C12.5013 22.535 12.5014 18.4979 14.9824 16.0168L16.2885 14.7107C16.5173 14.4819 16.5173 14.1108 16.2885 13.882C16.0597 13.6532 15.6886 13.6532 15.4597 13.882L14.1537 15.1881C11.2156 18.1261 11.2155 22.9067 14.1537 25.8447Z" fill="#0D0404"/>
<path d="M1.2164 38.7822C2.62038 40.1861 4.90429 40.3948 6.53336 39.2566C7.86968 38.323 8.54632 36.6564 8.24101 35.0555L13.5095 29.7869C15.5278 31.0866 17.9398 31.6947 20.3564 31.5043C22.9697 31.2985 25.4284 30.1654 27.2798 28.314L35.3156 20.2783C35.5445 20.0494 35.5445 19.6783 35.3156 19.4496C35.0868 19.2208 34.7157 19.2208 34.487 19.4496L26.451 27.4855C24.7967 29.1398 22.5996 30.1522 20.2643 30.3361C17.9543 30.5182 15.6505 29.8849 13.7766 28.5531C13.5436 28.3875 13.2249 28.4142 13.0228 28.6164L7.80242 33.8367C7.79476 33.8229 7.78656 33.8093 7.77882 33.7954C7.40023 33.1252 6.83664 32.5671 6.16257 32.1952L11.3821 26.9757C11.5843 26.7736 11.611 26.4548 11.4454 26.2218C10.1136 24.3481 9.48038 22.044 9.66234 19.7342C9.84632 17.3989 10.8587 15.2018 12.513 13.5475L24.5513 1.50919C25.0037 1.05693 25.7396 1.05693 26.192 1.50919C26.6443 1.96154 26.6443 2.69747 26.192 3.14989L17.1173 12.2247C16.8884 12.4535 16.8884 12.8246 17.1173 13.0533C17.3461 13.2822 17.7172 13.2822 17.9459 13.0533L27.0207 3.97857C27.93 3.06927 27.93 1.58989 27.0207 0.680519C26.1388 -0.201435 24.628 -0.224873 23.7227 0.680519L11.6844 12.7188C9.83296 14.5701 8.7 17.0289 8.49406 19.6422C8.30367 22.0589 8.91171 24.4708 10.2114 26.489L4.94468 31.7558C4.68796 31.7068 4.42476 31.6812 4.15765 31.6812C3.04655 31.6812 2.00203 32.1139 1.21632 32.8995C-0.405472 34.5214 -0.405476 37.1603 1.2164 38.7822ZM2.04499 33.7283C2.60937 33.1639 3.3596 32.8532 4.15765 32.8532C4.81226 32.8532 5.45734 33.0728 5.97663 33.4711C7.38687 34.5529 7.52593 36.6979 6.27023 37.9534C5.11867 39.105 3.19547 39.1039 2.04499 37.9534C0.88015 36.7886 0.88015 34.8931 2.04499 33.7283Z" fill="#0D0404"/>
</g>
<defs>
<clipPath id="clip0">
<rect width="40" height="40" fill="white" transform="translate(40 40) rotate(-180)"/>
</clipPath>
</defs>
</svg>
