<svg width="28" height="40" viewBox="0 0 28 40" fill="none" xmlns="http://www.w3.org/2000/svg">
<path d="M0.63337 34.7546C0.283116 34.7546 0 34.4615 0 34.0989C0 30.8445 2.55692 28.1973 5.70033 28.1973C6.05058 28.1973 6.3337 28.4904 6.3337 28.8531C6.3337 29.2157 6.05058 29.5088 5.70033 29.5088C3.25616 29.5088 1.26674 31.5684 1.26674 34.0989C1.26674 34.4615 0.983624 34.7546 0.63337 34.7546Z" fill="#0D0404"/>
<path d="M27.235 34.7553C26.8847 34.7553 26.6016 34.4622 26.6016 34.0996C26.6016 31.5691 24.6122 29.5094 22.168 29.5094C21.8177 29.5094 21.5346 29.2163 21.5346 28.8537C21.5346 28.4911 21.8177 28.1979 22.168 28.1979C25.3114 28.1979 27.8684 30.8452 27.8684 34.0996C27.8684 34.4622 27.5853 34.7553 27.235 34.7553Z" fill="#0D0404"/>
<path d="M9.50057 29.5094L5.70033 29.5087C5.35007 29.5087 5.06696 29.215 5.06696 28.853C5.06696 28.4904 5.35071 28.1973 5.70033 28.1973L9.50057 28.198C9.85083 28.198 10.1339 28.4917 10.1339 28.8537C10.1339 29.2163 9.8502 29.5094 9.50057 29.5094Z" fill="#0D0404"/>
<path d="M22.1681 29.5093L18.3679 29.508C18.0176 29.508 17.7345 29.2142 17.7345 28.8523C17.7345 28.4896 18.0182 28.1965 18.3679 28.1965L22.1681 28.1978C22.5184 28.1978 22.8015 28.4916 22.8015 28.8536C22.8015 29.2162 22.5177 29.5093 22.1681 29.5093Z" fill="#0D0404"/>
<path d="M0.634647 39.9993C0.285021 39.9993 0.00126697 39.7062 0.00126697 39.3435L0 34.099C0 33.7371 0.283121 33.4433 0.63338 33.4433C0.983005 33.4433 1.26676 33.7364 1.26676 34.099L1.26803 39.3435C1.26803 39.7055 0.984906 39.9993 0.634647 39.9993Z" fill="#0D0404"/>
<path d="M27.2352 39.9994C26.8849 39.9994 26.6018 39.7063 26.6018 39.3436V34.0998C26.6018 33.7371 26.8849 33.444 27.2352 33.444C27.5854 33.444 27.8685 33.7371 27.8685 34.0998V39.3436C27.8685 39.7063 27.5854 39.9994 27.2352 39.9994Z" fill="#0D0404"/>
<path d="M9.5006 29.5093C9.15036 29.5093 8.86725 29.2162 8.86725 28.8536V25.0956C8.86725 24.7329 9.15036 24.4398 9.5006 24.4398C9.85085 24.4398 10.134 24.7329 10.134 25.0956V28.8536C10.134 29.2162 9.85085 29.5093 9.5006 29.5093Z" fill="#0D0404"/>
<path d="M18.3679 29.508C18.0176 29.508 17.7345 29.2149 17.7345 28.8523V25.0956C17.7345 24.7329 18.0176 24.4398 18.3679 24.4398C18.7181 24.4398 19.0012 24.7329 19.0012 25.0956V28.8523C19.0012 29.2149 18.7181 29.508 18.3679 29.508Z" fill="#0D0404"/>
<path d="M13.9342 26.8858C8.34663 26.8858 3.80029 22.1789 3.80029 16.394C3.80029 16.0321 4.08341 15.7383 4.43366 15.7383C4.78392 15.7383 5.06704 16.0321 5.06704 16.394C5.06704 21.4563 9.04461 25.5744 13.9342 25.5744C18.8239 25.5744 22.8014 21.4563 22.8014 16.394C22.8014 16.0321 23.0846 15.7383 23.4348 15.7383C23.7851 15.7383 24.0682 16.0321 24.0682 16.394C24.0682 22.1789 19.5218 26.8858 13.9342 26.8858Z" fill="#0D0404"/>
<path d="M4.43365 17.0499C4.0834 17.0499 3.80029 16.7561 3.80029 16.3942V9.1804C3.80029 8.81843 4.0834 8.52466 4.43365 8.52466C4.78389 8.52466 5.067 8.81843 5.067 9.1804V16.3942C5.067 16.7561 4.78389 17.0499 4.43365 17.0499Z" fill="#0D0404"/>
<path d="M23.4349 17.0499C23.0846 17.0499 22.8015 16.7561 22.8015 16.3942V8.52598C22.8015 8.16401 23.0846 7.87024 23.4349 7.87024C23.7851 7.87024 24.0682 8.16401 24.0682 8.52598V16.3942C24.0682 16.7561 23.7851 17.0499 23.4349 17.0499Z" fill="#0D0404"/>
<path d="M23.4348 9.18168C23.0845 9.18168 22.8014 8.88791 22.8014 8.52594C22.8014 6.3561 21.097 4.59151 19.0012 4.59151C18.6509 4.59151 18.3678 4.29774 18.3678 3.93577C18.3678 3.5738 18.6509 3.28003 19.0012 3.28003C21.795 3.28003 24.0681 5.63348 24.0681 8.52594C24.0681 8.88791 23.785 9.18168 23.4348 9.18168Z" fill="#0D0404"/>
<path d="M19.0013 4.59143C18.651 4.59143 18.3679 4.29767 18.3679 3.9357V0.655732C18.3679 0.293768 18.651 0 19.0013 0C19.3516 0 19.6347 0.293768 19.6347 0.655732V3.9357C19.6347 4.29767 19.3516 4.59143 19.0013 4.59143Z" fill="#0D0404"/>
<path d="M19.0012 1.31146H12.6674C12.3172 1.31146 12.0341 1.01769 12.0341 0.655728C12.0341 0.293766 12.3172 0 12.6674 0H19.0012C19.3514 0 19.6345 0.293766 19.6345 0.655728C19.6345 1.01769 19.3514 1.31146 19.0012 1.31146Z" fill="#0D0404"/>
<path d="M4.43366 9.83602C4.08341 9.83602 3.80029 9.54225 3.80029 9.18028C3.80029 4.11801 7.77786 0 12.6675 0C13.0177 0 13.3008 0.293769 13.3008 0.655735C13.3008 1.0177 13.0177 1.31147 12.6675 1.31147C8.47646 1.31147 5.06703 4.84129 5.06703 9.18028C5.06703 9.54225 4.78392 9.83602 4.43366 9.83602Z" fill="#0D0404"/>
<path d="M23.4347 13.1149C23.2726 13.1149 23.1105 13.0506 22.987 12.9227L20.4536 10.2997C20.2059 10.0433 20.2059 9.62882 20.4536 9.37242C20.7012 9.11601 21.1015 9.11601 21.3491 9.37242L23.8825 11.9955C24.1302 12.2519 24.1302 12.6663 23.8825 12.9227C23.759 13.0506 23.5969 13.1149 23.4347 13.1149Z" fill="#0D0404"/>
<path d="M13.9342 12.4591C10.0035 12.4591 6.77648 10.4827 6.64094 10.3981C6.34135 10.2119 6.24444 9.80992 6.42369 9.49909C6.60293 9.18827 6.98992 9.08663 7.29204 9.27286C7.32245 9.29122 10.3645 11.147 13.9336 11.147C17.5027 11.147 20.5448 9.29122 20.5752 9.27286C20.8779 9.08597 21.2643 9.18893 21.4435 9.49909C21.6228 9.80926 21.5259 10.2119 21.2263 10.3981C21.092 10.4827 17.865 12.4591 13.9342 12.4591Z" fill="#0D0404"/>
<path d="M4.43363 13.1152C4.27149 13.1152 4.10935 13.051 3.98584 12.9231C3.7382 12.6667 3.7382 12.2522 3.98584 11.9959L6.51931 9.37284C6.76696 9.11644 7.16724 9.11644 7.41489 9.37284C7.66254 9.62924 7.66254 10.0437 7.41489 10.3001L4.88142 12.9231C4.75792 13.051 4.59578 13.1152 4.43363 13.1152Z" fill="#0D0404"/>
<path d="M11.4 30.8196C11.2797 30.8196 11.1575 30.7836 11.0492 30.7095L9.14905 29.3993C8.85834 29.1986 8.77916 28.7914 8.97361 28.4897C9.16742 28.188 9.55947 28.1067 9.85209 28.3081L11.7522 29.6183C12.0429 29.8189 12.1221 30.2262 11.9276 30.5278C11.806 30.7173 11.6046 30.8196 11.4 30.8196Z" fill="#0D0404"/>
<path d="M11.4001 30.8198C11.1164 30.8198 10.8586 30.6211 10.7864 30.3227C10.7009 29.9712 10.9074 29.6158 11.2475 29.5279L13.781 28.8728C14.1193 28.7836 14.4638 28.9981 14.5487 29.3502C14.6342 29.7017 14.4277 30.0571 14.0876 30.145L11.5541 30.8001C11.5028 30.8132 11.4508 30.8198 11.4001 30.8198Z" fill="#0D0404"/>
<path d="M16.4684 30.8196C16.2639 30.8196 16.0624 30.7173 15.9408 30.5278C15.7464 30.2262 15.8256 29.8189 16.1163 29.6183L18.0164 28.3081C18.3084 28.1067 18.7004 28.188 18.8949 28.4897C19.0893 28.7914 19.0101 29.1986 18.7194 29.3993L16.8193 30.7095C16.711 30.7836 16.5888 30.8196 16.4684 30.8196Z" fill="#0D0404"/>
<path d="M16.4684 30.8198C16.4177 30.8198 16.3658 30.8132 16.3145 30.8001L13.781 30.145C13.4415 30.0571 13.235 29.7016 13.3199 29.3501C13.4041 28.9993 13.7474 28.7835 14.0876 28.8727L16.621 29.5279C16.9605 29.6157 17.167 29.9712 17.0821 30.3227C17.0099 30.6204 16.7522 30.8198 16.4684 30.8198Z" fill="#0D0404"/>
<path d="M15.8343 23.6068C15.6722 23.6068 15.5101 23.5426 15.3865 23.4147L14.9388 22.9511H12.9297L12.4819 23.4147C12.2343 23.6711 11.834 23.6711 11.5864 23.4147C11.3387 23.1583 11.3387 22.7439 11.5864 22.4875L12.2197 21.8318C12.3388 21.7086 12.499 21.6397 12.6675 21.6397H15.201C15.3694 21.6397 15.5303 21.7086 15.6488 21.8318L16.2821 22.4875C16.5298 22.7439 16.5298 23.1583 16.2821 23.4147C16.1586 23.5426 15.9965 23.6068 15.8343 23.6068Z" fill="#0D0404"/>
<path d="M12.0341 23.607C8.54173 23.607 5.70044 20.6653 5.70044 17.0496C5.70044 16.6876 5.98356 16.3939 6.33381 16.3939C6.68406 16.3939 6.96718 16.6876 6.96718 17.0496C6.96718 19.9421 9.24034 22.2955 12.0341 22.2955C12.3844 22.2955 12.6675 22.5886 12.6675 22.9512C12.6675 23.3139 12.3844 23.607 12.0341 23.607Z" fill="#0D0404"/>
<path d="M6.33377 17.705C5.98352 17.705 5.7004 17.4113 5.7004 17.0493C5.7004 16.326 5.13227 15.7378 4.43366 15.7378C4.08341 15.7378 3.80029 15.444 3.80029 15.0821C3.80029 14.7201 4.08341 14.4263 4.43366 14.4263C5.83088 14.4263 6.96714 15.6027 6.96714 17.0493C6.96714 17.4113 6.68403 17.705 6.33377 17.705Z" fill="#0D0404"/>
<path d="M15.8344 23.607C15.4842 23.607 15.201 23.3139 15.201 22.9512C15.201 22.5886 15.4842 22.2955 15.8344 22.2955C18.6282 22.2955 20.9014 19.9421 20.9014 17.0496C20.9014 16.6876 21.1845 16.3939 21.5348 16.3939C21.8851 16.3939 22.1682 16.6876 22.1682 17.0496C22.1682 20.6653 19.3269 23.607 15.8344 23.607Z" fill="#0D0404"/>
<path d="M21.5347 17.7051C21.1844 17.7051 20.9013 17.4113 20.9013 17.0494C20.9013 15.6028 22.0376 14.4264 23.4348 14.4264C23.785 14.4264 24.0682 14.7202 24.0682 15.0821C24.0682 15.4441 23.785 15.7379 23.4348 15.7379C22.7362 15.7379 22.168 16.3261 22.168 17.0494C22.168 17.4113 21.8849 17.7051 21.5347 17.7051Z" fill="#0D0404"/>
<path d="M19.0024 34.7553C18.6522 34.7553 18.3691 34.4622 18.3691 34.0995V28.8523C18.3691 28.4897 18.6522 28.1965 19.0024 28.1965C19.3527 28.1965 19.6358 28.4897 19.6358 28.8523V34.0995C19.6358 34.4622 19.3527 34.7553 19.0024 34.7553Z" fill="#0D0404"/>
<path d="M21.5359 34.7553C21.1857 34.7553 20.9026 34.4622 20.9026 34.0995V28.8523C20.9026 28.4897 21.1857 28.1965 21.5359 28.1965C21.8862 28.1965 22.1693 28.4897 22.1693 28.8523V34.0995C22.1693 34.4622 21.8862 34.7553 21.5359 34.7553Z" fill="#0D0404"/>
<path d="M6.33497 34.7553C5.98468 34.7553 5.70154 34.4622 5.70154 34.0995V28.8523C5.70154 28.4897 5.98468 28.1965 6.33497 28.1965C6.68526 28.1965 6.9684 28.4897 6.9684 28.8523V34.0995C6.9684 34.4622 6.68526 34.7553 6.33497 34.7553Z" fill="#0D0404"/>
<path d="M8.86852 34.7553C8.51828 34.7553 8.23517 34.4622 8.23517 34.0995V28.8523C8.23517 28.4897 8.51828 28.1965 8.86852 28.1965C9.21877 28.1965 9.50188 28.4897 9.50188 28.8523V34.0995C9.50188 34.4622 9.21877 34.7553 8.86852 34.7553Z" fill="#0D0404"/>
<path d="M23.4361 40C23.0859 40 22.8028 39.7069 22.8028 39.3443V34.7555H5.06704V39.3443C5.06704 39.7069 4.78392 40 4.43367 40C4.08341 40 3.80029 39.7069 3.80029 39.3443V34.0998C3.80029 33.7371 4.08341 33.444 4.43367 33.444H23.4361C23.7864 33.444 24.0695 33.7371 24.0695 34.0998V39.3443C24.0695 39.7069 23.7864 40 23.4361 40Z" fill="#0D0404"/>
</svg>
