<svg width="40" height="40" viewBox="0 0 40 40" fill="none" xmlns="http://www.w3.org/2000/svg">
<g clip-path="url(#clip0)">
<path d="M27.189 12.121C26.757 12.121 26.4062 12.4701 26.4062 12.9019C26.4062 13.3334 26.757 13.6832 27.189 13.6832C27.622 13.6832 27.9718 13.3334 27.9718 12.9019C27.9718 12.4701 27.622 12.121 27.189 12.121Z" fill="#0D0404"/>
<path d="M12.9663 26.3157C12.5333 26.3157 12.1835 26.6657 12.1835 27.0969C12.1835 27.5291 12.5333 27.8782 12.9663 27.8782C13.3984 27.8782 13.7491 27.5291 13.7491 27.0969C13.7491 26.6657 13.3984 26.3157 12.9663 26.3157Z" fill="#0D0404"/>
<path d="M39.1436 4.80623C38.8794 4.74489 38.6017 4.82454 38.4109 5.0168L35.1657 8.28127H33.61L31.8973 6.51033V4.93593L35.096 1.69588C35.2853 1.50423 35.3624 1.22865 35.2997 0.966505C35.2373 0.704664 35.0441 0.493483 34.7884 0.407423C33.9849 0.137037 33.144 1.30834e-05 32.2887 1.30834e-05C29.7392 1.30834e-05 27.423 1.18654 25.9339 3.25533C24.5401 5.19197 24.1105 7.56532 24.726 9.83675L18.9601 15.5915L9.35392 5.98207V4.09609C9.35392 3.82173 9.20959 3.56721 8.97384 3.42622L3.43904 0.111402C3.13083 -0.0732291 2.73668 -0.0247062 2.48289 0.228895L0.269095 2.43806C0.0153037 2.69166 -0.0333141 3.08504 0.151373 3.39265L3.47207 8.91664C3.61334 9.15193 3.86804 9.29567 4.14293 9.29598L6.032 9.29659L15.6391 18.906L9.89514 24.6387C7.61927 24.0247 5.24005 24.4541 3.29869 25.846C1.22708 27.3313 0.0391541 29.6424 0.0391541 32.1869C0.0391541 33.0402 0.176446 33.8797 0.447361 34.6814C0.533895 34.9381 0.74763 35.1319 1.01182 35.1929C1.27631 35.2542 1.55365 35.1746 1.74476 34.9823L4.98962 31.7182H6.55395L8.33631 33.497V35.0583L5.06576 38.2968C4.87312 38.4876 4.79331 38.7644 4.85477 39.0284C4.91593 39.292 5.11009 39.5053 5.36725 39.5917C6.17052 39.8621 7.0117 39.9991 7.86664 39.9991C10.4162 39.9991 12.7315 38.8132 14.22 36.7456C15.6146 34.8081 16.0448 32.4338 15.4296 30.1624L20.0428 25.5582L21.0996 26.7038L20.6146 27.1875C20.3088 27.4927 20.3088 27.9874 20.6146 28.2926C20.9204 28.5974 21.4157 28.5974 21.7218 28.2926L22.1609 27.8543L32.0759 38.6032C32.0833 38.6112 32.0909 38.6188 32.0985 38.6264C33.9332 40.4575 36.9056 40.4581 38.7412 38.6261C40.5715 36.7984 40.5715 33.8245 38.7412 31.9968C38.7332 31.9889 38.7249 31.9812 38.7167 31.9736L27.9299 22.0969L28.3641 21.6635C28.6699 21.3587 28.6699 20.864 28.3641 20.5588C28.0584 20.2536 27.563 20.2536 27.2569 20.5588L26.7753 21.0398L25.6253 19.9863L30.2608 15.3598C30.9198 15.5356 31.5998 15.6247 32.2887 15.6247C36.605 15.6247 40.1162 12.1201 40.1162 7.81252C40.1162 6.95894 39.9789 6.11971 39.708 5.3177C39.6215 5.06105 39.4077 4.86726 39.1436 4.80623ZM6.91079 7.96358C6.76402 7.81679 6.56496 7.74202 6.35704 7.74202L4.58661 7.74141L1.80836 3.11189L3.15773 1.76515L7.78836 4.53859V6.30556C7.78836 6.51247 7.87061 6.71083 8.01708 6.85732L17.8532 16.6965L16.746 17.8012L6.91079 7.96358ZM26.8218 23.2028L37.6453 33.1128C38.8543 34.3323 38.8506 36.3068 37.6339 37.5217C36.4145 38.7387 34.4405 38.7424 33.2161 37.5324L23.2687 26.7484L26.8218 23.2028ZM25.6672 22.1454L22.2074 25.5979L21.1506 24.4522L24.5172 21.0919L25.6672 22.1454ZM32.2887 14.0622C31.6041 14.0622 30.9308 13.9527 30.2881 13.7366C30.0064 13.6423 29.6952 13.7149 29.4848 13.9246C25.5605 17.8412 17.1047 26.2802 13.991 29.3882C13.7806 29.5981 13.7075 29.9088 13.8026 30.1902C14.4533 32.1186 14.142 34.1754 12.9483 35.8341C11.7579 37.4878 9.90553 38.4366 7.86664 38.4366C7.63761 38.4366 7.40981 38.4241 7.18415 38.4L9.67039 35.9378C9.81839 35.7914 9.90186 35.5918 9.90186 35.3833V33.1732C9.90186 32.966 9.81931 32.7674 9.67253 32.6209L7.43152 30.3842C7.28475 30.2378 7.08569 30.1554 6.87807 30.1554H4.66367C4.45482 30.1554 4.25485 30.2387 4.10777 30.3864L1.6411 32.8678C1.61664 32.6425 1.60441 32.4152 1.60441 32.1866C1.60441 30.1514 2.55475 28.3029 4.21204 27.1149C5.87361 25.9235 7.93483 25.6125 9.86731 26.2622C10.1489 26.3571 10.4602 26.2842 10.6706 26.0742C10.7137 26.0315 26.1534 10.6217 26.1644 10.6107C26.3748 10.4007 26.4475 10.0904 26.3528 9.80898C25.7018 7.88057 26.0124 5.8243 27.2053 4.16689C28.3965 2.51161 30.2492 1.56251 32.2884 1.56251C32.5245 1.56251 32.759 1.57564 32.9914 1.60127L30.5568 4.0674C30.4125 4.21358 30.3318 4.41042 30.3318 4.61549V6.82558C30.3318 7.02821 30.4104 7.22261 30.5513 7.36818L32.7141 9.60482C32.8614 9.7574 33.0648 9.84346 33.2773 9.84346H35.4917C35.7002 9.84346 35.9002 9.76046 36.0473 9.61244L38.514 7.13136C38.5384 7.35658 38.5507 7.58394 38.5507 7.81252C38.5507 11.2586 35.7415 14.0622 32.2887 14.0622Z" fill="#0D0404"/>
<path d="M24.4218 14.5591L14.6263 24.3354C14.3209 24.6403 14.3209 25.135 14.6263 25.4401C14.9321 25.7453 15.4278 25.7453 15.7335 25.4401L25.529 15.6638C25.8348 15.3589 25.8348 14.8643 25.529 14.5591C25.2232 14.2539 24.7275 14.2539 24.4218 14.5591Z" fill="#0D0404"/>
<path d="M34.3135 35.3126C34.6193 35.6168 35.115 35.6168 35.4208 35.3107C35.7259 35.0053 35.725 34.5106 35.4189 34.206L28.3632 27.1867C28.0571 26.8821 27.5612 26.883 27.2563 27.1885C26.9508 27.4943 26.9518 27.9887 27.2578 28.2932L34.3135 35.3126Z" fill="#0D0404"/>
</g>
<defs>
<clipPath id="clip0">
<rect width="40" height="40" fill="white"/>
</clipPath>
</defs>
</svg>
